<?xml version="1.0" encoding="UTF-8"?>
<!--Generator: Apple Native CoreSVG 148-->
<!DOCTYPE svg
PUBLIC "-//W3C//DTD SVG 1.1//EN"
       "http://www.w3.org/Graphics/SVG/1.1/DTD/svg11.dtd">
<svg version="1.1" xmlns="http://www.w3.org/2000/svg" xmlns:xlink="http://www.w3.org/1999/xlink" width="3300" height="2200">
 <!--glyph: "uni100762.medium", point size: 100.000000, font version: "Version 16.0d11e1", template writer version: "8"-->
 <g id="Notes">
  <rect height="2200" id="artboard" style="fill:white;opacity:1" width="3300" x="0" y="0"/>
  <line id="" style="fill:none;stroke:black;opacity:1;stroke-width:0.5;" x1="263" x2="3036" y1="292" y2="292"/>
  <text style="stroke:none;fill:black;font-family:-apple-system,&quot;SF Pro Display&quot;,&quot;SF Pro Text&quot;,Helvetica,sans-serif;font-weight:bold;" transform="matrix(1 0 0 1 263 322)">Weight/Scale Variations</text>
  <text style="stroke:none;fill:black;font-family:-apple-system,&quot;SF Pro Display&quot;,&quot;SF Pro Text&quot;,Helvetica,sans-serif;text-anchor:middle;" transform="matrix(1 0 0 1 559.711 322)">Ultralight</text>
  <text style="stroke:none;fill:black;font-family:-apple-system,&quot;SF Pro Display&quot;,&quot;SF Pro Text&quot;,Helvetica,sans-serif;text-anchor:middle;" transform="matrix(1 0 0 1 856.422 322)">Thin</text>
  <text style="stroke:none;fill:black;font-family:-apple-system,&quot;SF Pro Display&quot;,&quot;SF Pro Text&quot;,Helvetica,sans-serif;text-anchor:middle;" transform="matrix(1 0 0 1 1153.13 322)">Light</text>
  <text style="stroke:none;fill:black;font-family:-apple-system,&quot;SF Pro Display&quot;,&quot;SF Pro Text&quot;,Helvetica,sans-serif;text-anchor:middle;" transform="matrix(1 0 0 1 1449.84 322)">Regular</text>
  <text style="stroke:none;fill:black;font-family:-apple-system,&quot;SF Pro Display&quot;,&quot;SF Pro Text&quot;,Helvetica,sans-serif;text-anchor:middle;" transform="matrix(1 0 0 1 1746.56 322)">Medium</text>
  <text style="stroke:none;fill:black;font-family:-apple-system,&quot;SF Pro Display&quot;,&quot;SF Pro Text&quot;,Helvetica,sans-serif;text-anchor:middle;" transform="matrix(1 0 0 1 2043.27 322)">Semibold</text>
  <text style="stroke:none;fill:black;font-family:-apple-system,&quot;SF Pro Display&quot;,&quot;SF Pro Text&quot;,Helvetica,sans-serif;text-anchor:middle;" transform="matrix(1 0 0 1 2339.98 322)">Bold</text>
  <text style="stroke:none;fill:black;font-family:-apple-system,&quot;SF Pro Display&quot;,&quot;SF Pro Text&quot;,Helvetica,sans-serif;text-anchor:middle;" transform="matrix(1 0 0 1 2636.69 322)">Heavy</text>
  <text style="stroke:none;fill:black;font-family:-apple-system,&quot;SF Pro Display&quot;,&quot;SF Pro Text&quot;,Helvetica,sans-serif;text-anchor:middle;" transform="matrix(1 0 0 1 2933.4 322)">Black</text>
  <line id="" style="fill:none;stroke:black;opacity:1;stroke-width:0.5;" x1="263" x2="3036" y1="1903" y2="1903"/>
  <g id="" transform="matrix(1 0 0 1 263 1933)">
   <path d="M 9.24805 0.830078 C 13.5547 0.830078 17.1387 -2.74414 17.1387 -7.05078 C 17.1387 -11.3574 13.5449 -14.9316 9.23828 -14.9316 C 4.94141 -14.9316 1.36719 -11.3574 1.36719 -7.05078 C 1.36719 -2.74414 4.95117 0.830078 9.24805 0.830078 Z M 9.24805 -0.654297 C 5.70312 -0.654297 2.87109 -3.49609 2.87109 -7.05078 C 2.87109 -10.6055 5.69336 -13.4473 9.23828 -13.4473 C 12.793 -13.4473 15.6348 -10.6055 15.6445 -7.05078 C 15.6543 -3.49609 12.8027 -0.654297 9.24805 -0.654297 Z M 9.22852 -3.62305 C 9.69727 -3.62305 9.9707 -3.93555 9.9707 -4.45312 L 9.9707 -6.31836 L 12.002 -6.31836 C 12.5 -6.31836 12.832 -6.57227 12.832 -7.04102 C 12.832 -7.51953 12.5195 -7.7832 12.002 -7.7832 L 9.9707 -7.7832 L 9.9707 -9.81445 C 9.9707 -10.332 9.69727 -10.6543 9.22852 -10.6543 C 8.75977 -10.6543 8.50586 -10.3125 8.50586 -9.81445 L 8.50586 -7.7832 L 6.49414 -7.7832 C 5.97656 -7.7832 5.64453 -7.51953 5.64453 -7.04102 C 5.64453 -6.57227 5.99609 -6.31836 6.49414 -6.31836 L 8.50586 -6.31836 L 8.50586 -4.45312 C 8.50586 -3.95508 8.75977 -3.62305 9.22852 -3.62305 Z"/>
  </g>
  <g id="" transform="matrix(1 0 0 1 281.506 1933)">
   <path d="M 11.709 2.91016 C 17.1582 2.91016 21.6699 -1.61133 21.6699 -7.05078 C 21.6699 -12.5 17.1484 -17.0117 11.6992 -17.0117 C 6.25977 -17.0117 1.74805 -12.5 1.74805 -7.05078 C 1.74805 -1.61133 6.26953 2.91016 11.709 2.91016 Z M 11.709 1.25 C 7.09961 1.25 3.41797 -2.44141 3.41797 -7.05078 C 3.41797 -11.6602 7.08984 -15.3516 11.6992 -15.3516 C 16.3086 -15.3516 20 -11.6602 20.0098 -7.05078 C 20.0195 -2.44141 16.3184 1.25 11.709 1.25 Z M 11.6797 -2.66602 C 12.207 -2.66602 12.5098 -3.01758 12.5098 -3.59375 L 12.5098 -6.23047 L 15.3223 -6.23047 C 15.8691 -6.23047 16.25 -6.51367 16.25 -7.03125 C 16.25 -7.55859 15.8887 -7.86133 15.3223 -7.86133 L 12.5098 -7.86133 L 12.5098 -10.6836 C 12.5098 -11.25 12.207 -11.6113 11.6797 -11.6113 C 11.1621 -11.6113 10.8789 -11.2305 10.8789 -10.6836 L 10.8789 -7.86133 L 8.07617 -7.86133 C 7.50977 -7.86133 7.13867 -7.55859 7.13867 -7.03125 C 7.13867 -6.51367 7.5293 -6.23047 8.07617 -6.23047 L 10.8789 -6.23047 L 10.8789 -3.59375 C 10.8789 -3.03711 11.1621 -2.66602 11.6797 -2.66602 Z"/>
  </g>
  <g id="" transform="matrix(1 0 0 1 304.924 1933)">
   <path d="M 14.9707 5.66406 C 21.9336 5.66406 27.6953 -0.0976562 27.6953 -7.05078 C 27.6953 -14.0137 21.9238 -19.7754 14.9609 -19.7754 C 8.00781 -19.7754 2.25586 -14.0137 2.25586 -7.05078 C 2.25586 -0.0976562 8.01758 5.66406 14.9707 5.66406 Z M 14.9707 3.84766 C 8.93555 3.84766 4.08203 -1.01562 4.08203 -7.05078 C 4.08203 -13.0957 8.92578 -17.9492 14.9609 -17.9492 C 21.0059 -17.9492 25.8594 -13.0957 25.8691 -7.05078 C 25.8789 -1.01562 21.0156 3.84766 14.9707 3.84766 Z M 14.9414 -1.38672 C 15.5176 -1.38672 15.8594 -1.77734 15.8594 -2.38281 L 15.8594 -6.13281 L 19.7754 -6.13281 C 20.3711 -6.13281 20.7812 -6.46484 20.7812 -7.02148 C 20.7812 -7.59766 20.3906 -7.93945 19.7754 -7.93945 L 15.8594 -7.93945 L 15.8594 -11.8652 C 15.8594 -12.4805 15.5176 -12.8711 14.9414 -12.8711 C 14.375 -12.8711 14.0527 -12.4609 14.0527 -11.8652 L 14.0527 -7.93945 L 10.1465 -7.93945 C 9.53125 -7.93945 9.13086 -7.59766 9.13086 -7.02148 C 9.13086 -6.46484 9.55078 -6.13281 10.1465 -6.13281 L 14.0527 -6.13281 L 14.0527 -2.38281 C 14.0527 -1.79688 14.375 -1.38672 14.9414 -1.38672 Z"/>
  </g>
  <text style="stroke:none;fill:black;font-family:-apple-system,&quot;SF Pro Display&quot;,&quot;SF Pro Text&quot;,Helvetica,sans-serif;font-weight:bold;" transform="matrix(1 0 0 1 263 1953)">Design Variations</text>
  <text style="stroke:none;fill:black;font-family:-apple-system,&quot;SF Pro Display&quot;,&quot;SF Pro Text&quot;,Helvetica,sans-serif;" transform="matrix(1 0 0 1 263 1971)">Symbols are supported in up to nine weights and three scales.</text>
  <text style="stroke:none;fill:black;font-family:-apple-system,&quot;SF Pro Display&quot;,&quot;SF Pro Text&quot;,Helvetica,sans-serif;" transform="matrix(1 0 0 1 263 1989)">For optimal layout with text and other symbols, vertically align</text>
  <text style="stroke:none;fill:black;font-family:-apple-system,&quot;SF Pro Display&quot;,&quot;SF Pro Text&quot;,Helvetica,sans-serif;" transform="matrix(1 0 0 1 263 2007)">symbols with the adjacent text.</text>
  <line id="" style="fill:none;stroke:#00AEEF;stroke-width:0.5;opacity:1.0;" x1="776" x2="776" y1="1919" y2="1933"/>
  <g id="" transform="matrix(1 0 0 1 776 1933)">
   <path d="M 3.31055 0.126953 C 3.82812 0.126953 4.08203 -0.0683594 4.26758 -0.605469 L 5.52734 -4.0625 L 11.2891 -4.0625 L 12.5488 -0.605469 C 12.7344 -0.0683594 12.9883 0.126953 13.4961 0.126953 C 14.0137 0.126953 14.3457 -0.185547 14.3457 -0.673828 C 14.3457 -0.839844 14.3164 -0.986328 14.2383 -1.20117 L 9.6582 -13.3887 C 9.43359 -13.9941 9.0332 -14.2871 8.4082 -14.2871 C 7.80273 -14.2871 7.39258 -13.9941 7.17773 -13.3984 L 2.59766 -1.19141 C 2.51953 -0.976562 2.49023 -0.830078 2.49023 -0.664062 C 2.49023 -0.175781 2.80273 0.126953 3.31055 0.126953 Z M 6.00586 -5.53711 L 8.37891 -12.1094 L 8.42773 -12.1094 L 10.8008 -5.53711 Z"/>
  </g>
  <line id="" style="fill:none;stroke:#00AEEF;stroke-width:0.5;opacity:1.0;" x1="792.836" x2="792.836" y1="1919" y2="1933"/>
  <text style="stroke:none;fill:black;font-family:-apple-system,&quot;SF Pro Display&quot;,&quot;SF Pro Text&quot;,Helvetica,sans-serif;font-weight:bold;" transform="matrix(1 0 0 1 776 1953)">Margins</text>
  <text style="stroke:none;fill:black;font-family:-apple-system,&quot;SF Pro Display&quot;,&quot;SF Pro Text&quot;,Helvetica,sans-serif;" transform="matrix(1 0 0 1 776 1971)">Leading and trailing margins on the left and right side of each symbol</text>
  <text style="stroke:none;fill:black;font-family:-apple-system,&quot;SF Pro Display&quot;,&quot;SF Pro Text&quot;,Helvetica,sans-serif;" transform="matrix(1 0 0 1 776 1989)">can be adjusted by modifying the x-location of the margin guidelines.</text>
  <text style="stroke:none;fill:black;font-family:-apple-system,&quot;SF Pro Display&quot;,&quot;SF Pro Text&quot;,Helvetica,sans-serif;" transform="matrix(1 0 0 1 776 2007)">Modifications are automatically applied proportionally to all</text>
  <text style="stroke:none;fill:black;font-family:-apple-system,&quot;SF Pro Display&quot;,&quot;SF Pro Text&quot;,Helvetica,sans-serif;" transform="matrix(1 0 0 1 776 2025)">scales and weights.</text>
  <g id="" transform="matrix(1 0 0 1 1289 1933)">
   <path d="M 2.8418 1.86523 L 4.54102 3.57422 C 5.40039 4.44336 6.38672 4.38477 7.31445 3.35938 L 17.4902 -7.85156 C 17.7539 -7.76367 18.0273 -7.7832 18.3398 -7.8418 L 19.4043 -8.03711 L 20.0684 -7.36328 L 20.0293 -6.80664 C 19.9902 -6.30859 20.1172 -5.92773 20.6055 -5.44922 L 21.3672 -4.70703 C 21.8457 -4.22852 22.4609 -4.19922 22.9297 -4.66797 L 25.8398 -7.58789 C 26.3086 -8.05664 26.2891 -8.65234 25.8105 -9.13086 L 25.0391 -9.89258 C 24.5605 -10.3711 24.1895 -10.5273 23.7109 -10.4883 L 23.1348 -10.4395 L 22.4902 -11.0742 L 22.7344 -12.1973 C 22.8613 -12.7637 22.7051 -13.2031 22.1191 -13.7891 L 19.9219 -15.9766 C 16.582 -19.2969 12.1484 -19.2188 9.25781 -16.3281 C 8.83789 -15.918 8.80859 -15.3418 9.04297 -14.9512 C 9.27734 -14.5898 9.73633 -14.3555 10.3809 -14.5215 C 11.8457 -14.8633 13.3691 -14.9219 14.7949 -13.9844 L 14.209 -12.5293 C 14.0137 -12.0508 13.9844 -11.6504 14.1113 -11.2891 L 3.04688 -0.898438 C 2.06055 0.0195312 1.98242 0.996094 2.8418 1.86523 Z M 10.752 -15.957 C 13.1836 -17.7344 16.4746 -17.4316 18.7012 -15.2051 L 21.1328 -12.793 C 21.3672 -12.5586 21.4062 -12.373 21.3379 -12.0312 L 21.0156 -10.5469 L 22.5195 -9.0625 L 23.5059 -9.12109 C 23.7598 -9.13086 23.8379 -9.11133 24.0332 -8.91602 L 24.6094 -8.33984 L 22.168 -5.89844 L 21.5918 -6.47461 C 21.3965 -6.66992 21.3672 -6.74805 21.377 -7.01172 L 21.4453 -7.98828 L 19.9512 -9.47266 L 18.4277 -9.21875 C 18.1055 -9.15039 17.959 -9.17969 17.7148 -9.41406 L 15.7129 -11.416 C 15.459 -11.6504 15.4297 -11.8164 15.5859 -12.1875 L 16.4648 -14.2773 C 14.9023 -15.7324 12.8711 -16.3574 10.8398 -15.7617 C 10.6836 -15.7227 10.625 -15.8496 10.752 -15.957 Z M 5.27344 2.30469 L 4.10156 1.14258 C 3.63281 0.683594 3.74023 0.341797 4.14062 -0.0195312 L 14.9512 -10.1953 L 16.416 -8.71094 L 6.42578 2.27539 C 6.07422 2.67578 5.74219 2.77344 5.27344 2.30469 Z"/>
  </g>
  <text style="stroke:none;fill:black;font-family:-apple-system,&quot;SF Pro Display&quot;,&quot;SF Pro Text&quot;,Helvetica,sans-serif;font-weight:bold;" transform="matrix(1 0 0 1 1289 1953)">Exporting</text>
  <text style="stroke:none;fill:black;font-family:-apple-system,&quot;SF Pro Display&quot;,&quot;SF Pro Text&quot;,Helvetica,sans-serif;" transform="matrix(1 0 0 1 1289 1971)">Symbols should be outlined when exporting to ensure the</text>
  <text style="stroke:none;fill:black;font-family:-apple-system,&quot;SF Pro Display&quot;,&quot;SF Pro Text&quot;,Helvetica,sans-serif;" transform="matrix(1 0 0 1 1289 1989)">design is preserved when submitting to Xcode.</text>
  <text id="template-version" style="stroke:none;fill:black;font-family:-apple-system,&quot;SF Pro Display&quot;,&quot;SF Pro Text&quot;,Helvetica,sans-serif;text-anchor:end;" transform="matrix(1 0 0 1 3036 1933)">Template v.2.0</text>
  <text style="stroke:none;fill:black;font-family:-apple-system,&quot;SF Pro Display&quot;,&quot;SF Pro Text&quot;,Helvetica,sans-serif;text-anchor:end;" transform="matrix(1 0 0 1 3036 1951)">Requires Xcode 12 or greater</text>
  <text style="stroke:none;fill:black;font-family:-apple-system,&quot;SF Pro Display&quot;,&quot;SF Pro Text&quot;,Helvetica,sans-serif;text-anchor:end;" transform="matrix(1 0 0 1 3036 1969)">Generated from figure.walk</text>
  <text style="stroke:none;fill:black;font-family:-apple-system,&quot;SF Pro Display&quot;,&quot;SF Pro Text&quot;,Helvetica,sans-serif;text-anchor:end;" transform="matrix(1 0 0 1 3036 1987)">Typeset at 100 points</text>
  <text style="stroke:none;fill:black;font-family:-apple-system,&quot;SF Pro Display&quot;,&quot;SF Pro Text&quot;,Helvetica,sans-serif;" transform="matrix(1 0 0 1 263 726)">Small</text>
  <text style="stroke:none;fill:black;font-family:-apple-system,&quot;SF Pro Display&quot;,&quot;SF Pro Text&quot;,Helvetica,sans-serif;" transform="matrix(1 0 0 1 263 1156)">Medium</text>
  <text style="stroke:none;fill:black;font-family:-apple-system,&quot;SF Pro Display&quot;,&quot;SF Pro Text&quot;,Helvetica,sans-serif;" transform="matrix(1 0 0 1 263 1586)">Large</text>
 </g>
 <g id="Guides">
  <g id="H-reference" style="fill:#27AAE1;stroke:none;" transform="matrix(1 0 0 1 339 696)">
   <path d="M 0.976562 0 L 3.66211 0 L 12.9883 -24.4629 L 45.7031 -24.4629 L 55.0781 0 L 57.7148 0 L 30.6152 -70.459 L 28.125 -70.459 Z M 29.2969 -67.1387 L 29.3945 -67.1387 L 44.873 -26.709 L 13.8672 -26.709 Z"/>
  </g>
  <line id="Baseline-S" style="fill:none;stroke:#27AAE1;opacity:1;stroke-width:0.5;" x1="263" x2="3036" y1="696" y2="696"/>
  <line id="Capline-S" style="fill:none;stroke:#27AAE1;opacity:1;stroke-width:0.5;" x1="263" x2="3036" y1="625.541" y2="625.541"/>
  <g id="H-reference" style="fill:#27AAE1;stroke:none;" transform="matrix(1 0 0 1 339 1126)">
   <path d="M 0.976562 0 L 3.66211 0 L 12.9883 -24.4629 L 45.7031 -24.4629 L 55.0781 0 L 57.7148 0 L 30.6152 -70.459 L 28.125 -70.459 Z M 29.2969 -67.1387 L 29.3945 -67.1387 L 44.873 -26.709 L 13.8672 -26.709 Z"/>
  </g>
  <line id="Baseline-M" style="fill:none;stroke:#27AAE1;opacity:1;stroke-width:0.5;" x1="263" x2="3036" y1="1126" y2="1126"/>
  <line id="Capline-M" style="fill:none;stroke:#27AAE1;opacity:1;stroke-width:0.5;" x1="263" x2="3036" y1="1055.54" y2="1055.54"/>
  <g id="H-reference" style="fill:#27AAE1;stroke:none;" transform="matrix(1 0 0 1 339 1556)">
   <path d="M 0.976562 0 L 3.66211 0 L 12.9883 -24.4629 L 45.7031 -24.4629 L 55.0781 0 L 57.7148 0 L 30.6152 -70.459 L 28.125 -70.459 Z M 29.2969 -67.1387 L 29.3945 -67.1387 L 44.873 -26.709 L 13.8672 -26.709 Z"/>
  </g>
  <line id="Baseline-L" style="fill:none;stroke:#27AAE1;opacity:1;stroke-width:0.5;" x1="263" x2="3036" y1="1556" y2="1556"/>
  <line id="Capline-L" style="fill:none;stroke:#27AAE1;opacity:1;stroke-width:0.5;" x1="263" x2="3036" y1="1485.54" y2="1485.54"/>
  <line id="left-margin" style="fill:none;stroke:#00AEEF;stroke-width:0.5;opacity:1.0;" x1="1402.6" x2="1402.6" y1="1030.79" y2="1150.12"/>
  <line id="right-margin" style="fill:none;stroke:#00AEEF;stroke-width:0.5;opacity:1.0;" x1="1497.09" x2="1497.09" y1="1030.79" y2="1150.12"/>
 </g>
 <g id="Symbols">
  <g id="Black-L" transform="matrix(1 0 0 1 2865.38 1556)">
   <path d="M 67.7246 -92.627 C 76.7578 -92.627 84.082 -100.049 84.082 -108.74 C 84.082 -117.822 76.7578 -125.098 67.7246 -125.098 C 58.7402 -125.098 51.6113 -117.822 51.6113 -108.74 C 51.6113 -100.049 58.7402 -92.627 67.7246 -92.627 Z M 90.332 36.5723 C 94.873 36.5723 98.6816 33.3496 98.6816 28.5645 C 98.6816 27.002 98.291 25.3906 97.3633 23.6328 L 82.2754 -6.83594 C 80.7617 -9.96094 79.3457 -12.0605 78.0273 -13.8672 L 69.7754 -25.6348 L 70.166 -26.9043 C 72.6562 -35.0586 73.3887 -39.9414 73.9258 -47.2168 L 75.4395 -67.0898 C 76.2695 -77.7832 70.1172 -86.5723 58.3984 -86.5723 C 50.6348 -86.5723 43.75 -82.666 36.2793 -75.2441 L 25.1953 -64.3066 C 21.4355 -60.5469 20.2637 -57.5195 19.873 -52.832 L 18.5059 -36.2793 C 18.0664 -31.2988 20.9961 -28.0762 25.3906 -27.7832 C 29.7852 -27.4902 33.0566 -30.0781 33.4961 -35.3516 L 34.9609 -53.1738 L 41.3574 -58.7891 C 42.627 -59.8633 44.3848 -59.2773 44.2383 -57.4219 L 43.0664 -41.2109 C 42.4316 -33.0566 46.3867 -27.1973 50.3906 -22.1191 L 64.7949 -4.00391 C 66.1133 -2.39258 66.4062 -1.80664 67.0898 -0.390625 L 82.666 31.3477 C 84.4727 35.0098 87.3047 36.5723 90.332 36.5723 Z M 94.4336 -43.0176 L 111.914 -43.0176 C 117.041 -43.0176 119.971 -46.1426 119.971 -50.5371 C 120.068 -54.9805 116.992 -58.1055 111.816 -58.1055 L 94.043 -58.1055 L 82.0801 -70.6543 L 80.7129 -51.0742 L 85.5469 -46.1426 C 87.9883 -43.7012 90.2832 -43.0176 94.4336 -43.0176 Z M 24.2676 36.5723 C 26.6602 36.5723 29.0039 35.4004 30.9082 33.1055 L 52.7832 7.03125 C 55.1758 4.19922 55.6152 3.27148 56.4453 0.683594 C 56.7871 -0.341797 57.0801 -1.46484 57.2754 -2.44141 L 43.7988 -19.2383 L 40.2832 -3.32031 L 18.75 22.0703 C 16.9922 24.1211 16.0645 26.1719 16.0645 28.418 C 16.0645 32.959 19.8242 36.5723 24.2676 36.5723 Z"/>
  </g>
  <g id="Heavy-L" transform="matrix(1 0 0 1 2570.45 1556)">
   <path d="M 65.9668 -90.332 C 74.707 -90.332 81.8848 -97.5586 81.8848 -106.055 C 81.8848 -114.893 74.707 -122.021 65.9668 -122.021 C 57.1777 -122.021 50.1953 -114.893 50.1953 -106.055 C 50.1953 -97.5586 57.1777 -90.332 65.9668 -90.332 Z M 88.1348 35.7422 C 92.3828 35.7422 95.9961 32.666 95.9961 28.0273 C 95.9961 26.416 95.5566 24.8535 94.6777 23.0957 L 80.127 -6.29883 C 78.7109 -9.22852 77.2949 -11.377 76.0254 -13.1348 L 67.7734 -24.9023 L 68.2129 -26.2695 C 70.6055 -34.1309 71.3867 -38.8184 71.9238 -45.9961 L 73.3887 -65.7227 C 74.1699 -76.0254 68.2617 -84.5215 57.1289 -84.5215 C 49.5117 -84.5215 43.0664 -80.5664 35.8398 -73.3887 L 25.0488 -62.6953 C 21.3867 -59.0332 20.2148 -56.1035 19.8242 -51.5137 L 18.457 -35.1562 C 18.0664 -30.3711 20.8496 -27.2949 25.0488 -27.002 C 29.248 -26.709 32.373 -29.1504 32.8125 -34.2285 L 34.2773 -51.9531 L 40.5762 -57.5195 C 41.7969 -58.5938 43.5059 -58.0078 43.3594 -56.2012 L 42.1875 -40.0879 C 41.6016 -32.1289 45.3613 -26.3672 49.2676 -21.4355 L 63.3789 -3.71094 C 64.6973 -2.09961 64.9414 -1.51367 65.5762 -0.146484 L 80.8105 30.7129 C 82.5684 34.2773 85.3027 35.7422 88.1348 35.7422 Z M 91.8945 -42.1387 L 108.643 -42.1387 C 113.525 -42.1387 116.406 -45.0684 116.406 -49.2676 C 116.455 -53.5156 113.477 -56.4941 108.545 -56.4941 L 91.3574 -56.4941 L 79.6387 -68.8965 L 78.3203 -50.0977 L 83.2031 -45.166 C 85.5469 -42.7734 87.8418 -42.1387 91.8945 -42.1387 Z M 23.7793 35.7422 C 26.123 35.7422 28.3691 34.5703 30.0781 32.5195 L 51.416 7.08008 C 53.7109 4.3457 54.1016 3.51562 54.9316 0.976562 C 55.3223 -0.292969 55.6641 -1.5625 55.957 -2.73438 L 43.1152 -18.75 L 39.5996 -2.83203 L 18.8477 21.7285 C 17.0898 23.7793 16.0645 25.6836 16.0645 28.0273 C 16.0645 32.373 19.5801 35.7422 23.7793 35.7422 Z"/>
  </g>
  <g id="Bold-L" transform="matrix(1 0 0 1 2275.74 1556)">
   <path d="M 63.916 -87.7441 C 72.4609 -87.7441 79.3945 -94.8242 79.3945 -103.027 C 79.3945 -111.621 72.4609 -118.555 63.916 -118.555 C 55.4199 -118.555 48.6816 -111.621 48.6816 -103.027 C 48.6816 -94.8242 55.4199 -87.7441 63.916 -87.7441 Z M 85.7422 34.7656 C 89.5996 34.7656 93.0176 31.9336 93.0176 27.3926 C 93.0176 25.7812 92.5781 24.2676 91.6992 22.5098 L 77.7344 -5.76172 C 76.416 -8.39844 75 -10.5957 73.7305 -12.3535 L 65.5273 -24.0723 L 66.0156 -25.5371 C 68.3105 -33.0566 69.1895 -37.5977 69.6777 -44.6289 L 71.0938 -64.1113 C 71.8262 -74.0234 66.1621 -82.1777 55.6641 -82.1777 C 48.1934 -82.1777 42.3828 -78.2227 35.4004 -71.3379 L 24.8535 -60.8887 C 21.2891 -57.3242 20.166 -54.4434 19.7754 -50 L 18.457 -33.8379 C 18.0664 -29.3457 20.7031 -26.3672 24.707 -26.123 C 28.6621 -25.8301 31.5918 -28.1738 31.9824 -32.959 L 33.4473 -50.5859 L 39.6973 -56.1035 C 40.8691 -57.1289 42.5293 -56.5918 42.3828 -54.834 L 41.2598 -38.8672 C 40.6738 -31.1523 44.2383 -25.4883 48.0469 -20.7031 L 61.7676 -3.41797 C 63.0859 -1.80664 63.3301 -1.17188 63.916 0.0976562 L 78.7109 30.0293 C 80.4199 33.4473 83.0078 34.7656 85.7422 34.7656 Z M 89.0137 -41.1133 L 104.98 -41.1133 C 109.57 -41.1133 112.402 -43.7988 112.402 -47.8516 C 112.402 -51.9043 109.57 -54.6387 104.932 -54.6387 L 88.3789 -54.6387 L 76.9043 -66.9434 L 75.6348 -49.0234 L 80.5664 -44.0918 C 82.8613 -41.748 85.0586 -41.1133 89.0137 -41.1133 Z M 23.2422 34.7656 C 25.4883 34.7656 27.6367 33.6914 29.1504 31.8359 L 49.9023 7.17773 C 52.0508 4.54102 52.3926 3.80859 53.2227 1.31836 C 53.7109 -0.195312 54.1016 -1.66016 54.4434 -3.07617 L 42.2852 -18.2129 L 38.8672 -2.24609 L 18.8965 21.3379 C 17.1875 23.3887 16.0645 25.1953 16.0645 27.6367 C 16.0645 31.6895 19.2871 34.7656 23.2422 34.7656 Z"/>
  </g>
  <g id="Semibold-L" transform="matrix(1 0 0 1 1980.42 1556)">
   <path d="M 62.5488 -85.9863 C 70.8984 -85.9863 77.6855 -92.9199 77.6855 -100.977 C 77.6855 -109.375 70.8984 -116.162 62.5488 -116.162 C 54.1992 -116.162 47.6074 -109.375 47.6074 -100.977 C 47.6074 -92.9199 54.1992 -85.9863 62.5488 -85.9863 Z M 84.0332 34.082 C 87.6465 34.082 90.9668 31.3965 90.9668 27.002 C 90.9668 25.3906 90.4785 23.8281 89.5996 22.1191 L 76.0254 -5.37109 C 74.8047 -7.86133 73.4375 -10.0586 72.168 -11.8164 L 63.9648 -23.4863 L 64.4531 -25.0488 C 66.748 -32.3242 67.627 -36.7188 68.1641 -43.7012 L 69.5312 -63.0371 C 70.2148 -72.6562 64.6973 -80.5664 54.6387 -80.5664 C 47.3145 -80.5664 41.8945 -76.6113 35.1074 -69.9219 L 24.707 -59.668 C 21.2402 -56.2012 20.1172 -53.3203 19.7754 -48.9746 L 18.457 -32.959 C 18.1152 -28.6133 20.6055 -25.7324 24.4629 -25.4883 C 28.2227 -25.2441 31.0547 -27.4414 31.4453 -32.1289 L 32.9102 -49.6582 L 39.0625 -55.127 C 40.2344 -56.1035 41.8945 -55.6152 41.748 -53.8574 L 40.5762 -38.0371 C 40.0391 -30.4199 43.4082 -24.9023 47.168 -20.166 L 60.6934 -3.22266 C 61.9629 -1.5625 62.207 -0.927734 62.793 0.244141 L 77.2461 29.541 C 78.9062 32.9102 81.3965 34.082 84.0332 34.082 Z M 87.0605 -40.3809 L 102.441 -40.3809 C 106.885 -40.3809 109.619 -42.9688 109.619 -46.875 C 109.619 -50.7812 106.836 -53.3691 102.393 -53.3691 L 86.3281 -53.3691 L 75 -65.5762 L 73.7793 -48.2422 L 78.7598 -43.3594 C 81.0059 -41.0645 83.1543 -40.3809 87.0605 -40.3809 Z M 22.9004 34.082 C 25.0977 34.082 27.0996 33.0566 28.5156 31.3965 L 48.8281 7.22656 C 50.9277 4.63867 51.2207 4.00391 52.0508 1.5625 C 52.5879 -0.0976562 53.0273 -1.75781 53.418 -3.32031 L 41.748 -17.8223 L 38.3301 -1.85547 L 18.9453 21.0938 C 17.2363 23.1445 16.0645 24.8535 16.0645 27.3438 C 16.0645 31.25 19.0918 34.082 22.9004 34.082 Z"/>
  </g>
  <g id="Medium-L" transform="matrix(1 0 0 1 1684.76 1556)">
   <path d="M 61.5234 -84.668 C 69.7266 -84.668 76.416 -91.4551 76.416 -99.4141 C 76.416 -107.666 69.7266 -114.355 61.5234 -114.355 C 53.2715 -114.355 46.7773 -107.666 46.7773 -99.4141 C 46.7773 -91.4551 53.2715 -84.668 61.5234 -84.668 Z M 82.7637 33.5938 C 86.2305 33.5938 89.3555 31.0059 89.3555 26.6602 C 89.3555 25.0488 88.916 23.5352 88.0371 21.7773 L 74.8047 -5.07812 C 73.584 -7.42188 72.2168 -9.66797 70.9961 -11.377 L 62.793 -23.0469 L 63.3301 -24.6582 C 65.5762 -31.7383 66.4551 -36.084 66.9922 -42.9688 L 68.3105 -62.207 C 68.9941 -71.6309 63.623 -79.3457 53.8574 -79.3457 C 46.6309 -79.3457 41.5039 -75.3906 34.8633 -68.8477 L 24.6094 -58.7402 C 21.1914 -55.2734 20.0684 -52.4902 19.7266 -48.1934 L 18.457 -32.2754 C 18.1152 -28.0273 20.5078 -25.2441 24.2676 -25.0488 C 27.9297 -24.8047 30.6152 -26.9043 31.0059 -31.4453 L 32.4707 -48.9746 L 38.623 -54.3945 C 39.7461 -55.3711 41.3574 -54.834 41.2109 -53.1738 L 40.0879 -37.4023 C 39.5508 -29.8828 42.8223 -24.4141 46.5332 -19.7754 L 59.8145 -3.02734 C 61.1328 -1.41602 61.3281 -0.78125 61.9141 0.390625 L 76.123 29.1992 C 77.7832 32.4707 80.2246 33.5938 82.7637 33.5938 Z M 85.5469 -39.8926 L 100.537 -39.8926 C 104.785 -39.8926 107.52 -42.334 107.52 -46.1426 C 107.52 -49.9512 104.785 -52.4414 100.488 -52.4414 L 84.7656 -52.4414 L 73.584 -64.502 L 72.4121 -47.7051 L 77.3438 -42.7734 C 79.6387 -40.5273 81.7383 -39.8926 85.5469 -39.8926 Z M 22.6074 33.5938 C 24.7559 33.5938 26.709 32.6172 28.0273 31.0059 L 47.998 7.22656 C 50.0977 4.73633 50.3418 4.15039 51.123 1.75781 C 51.7578 -0.0488281 52.1973 -1.80664 52.6367 -3.51562 L 41.3574 -17.5293 L 37.9395 -1.5625 L 18.9941 20.8984 C 17.2852 22.9004 16.0645 24.6094 16.0645 27.1484 C 16.0645 30.9082 18.8965 33.5938 22.6074 33.5938 Z"/>
  </g>
  <g id="Regular-L" transform="matrix(1 0 0 1 1389.42 1556)">
   <path d="M 60.1562 -82.9102 C 68.2129 -82.9102 74.707 -89.5996 74.707 -97.3633 C 74.707 -105.42 68.2129 -112.012 60.1562 -112.012 C 52.0996 -112.012 45.7031 -105.42 45.7031 -97.3633 C 45.7031 -89.5996 52.0996 -82.9102 60.1562 -82.9102 Z M 81.1035 32.959 C 84.3262 32.959 87.3535 30.5176 87.3535 26.2207 C 87.3535 24.6094 86.8652 23.0957 85.9863 21.3867 L 73.1445 -4.6875 C 72.0215 -6.88477 70.6543 -9.13086 69.4336 -10.8398 L 61.2793 -22.5098 L 61.8164 -24.1699 C 64.0137 -31.0059 64.9414 -35.2539 65.4297 -42.041 L 66.7969 -61.1328 C 67.4316 -70.2637 62.1582 -77.7344 52.8809 -77.7344 C 45.752 -77.7344 41.0156 -73.7793 34.5703 -67.4805 L 24.5117 -57.5195 C 21.0938 -54.1504 20.0195 -51.3672 19.6777 -47.1191 L 18.457 -31.3965 C 18.1152 -27.3438 20.4102 -24.6582 24.0234 -24.4141 C 27.4902 -24.1699 30.127 -26.2207 30.4688 -30.6152 L 31.9336 -48.0469 L 37.9883 -53.418 C 39.1113 -54.3457 40.7227 -53.9062 40.5762 -52.2461 L 39.4531 -36.5723 C 38.916 -29.1992 42.041 -23.8281 45.6543 -19.2871 L 58.7402 -2.83203 C 60.0586 -1.2207 60.2539 -0.537109 60.791 0.585938 L 74.707 28.7109 C 76.3184 31.8848 78.6621 32.959 81.1035 32.959 Z M 83.5938 -39.1602 L 97.998 -39.1602 C 102.1 -39.1602 104.785 -41.5039 104.785 -45.166 C 104.785 -48.8281 102.1 -51.1719 97.998 -51.1719 L 82.7148 -51.1719 L 71.7285 -63.1836 L 70.6055 -46.9727 L 75.5859 -42.041 C 77.7832 -39.8438 79.834 -39.1602 83.5938 -39.1602 Z M 22.2168 32.959 C 24.3652 32.959 26.2207 31.9824 27.4414 30.5664 L 46.9727 7.27539 C 48.9746 4.88281 49.1699 4.3457 49.9512 2.00195 C 50.6348 0 51.1719 -1.85547 51.6113 -3.71094 L 40.8203 -17.1875 L 37.4512 -1.17188 L 19.043 20.6055 C 17.334 22.6562 16.0645 24.2676 16.0645 26.8555 C 16.0645 30.4688 18.7012 32.959 22.2168 32.959 Z"/>
  </g>
  <g id="Light-L" transform="matrix(1 0 0 1 1093.44 1556)">
   <path d="M 59.2285 -82.7637 C 67.0898 -82.7637 73.4863 -89.2578 73.4863 -96.875 C 73.4863 -104.736 67.0898 -111.182 59.2285 -111.182 C 51.3672 -111.182 45.1172 -104.736 45.1172 -96.875 C 45.1172 -89.2578 51.3672 -82.7637 59.2285 -82.7637 Z M 80.0781 31.4453 C 83.1543 31.4453 86.084 29.0527 86.084 24.9023 C 86.084 23.291 85.5957 21.8262 84.7656 20.1172 L 72.0703 -5.71289 C 70.9961 -7.86133 69.6289 -10.1074 68.4082 -11.7676 L 60.3516 -23.291 L 60.8887 -24.9023 C 62.9883 -31.6895 64.0137 -35.8398 64.4531 -42.5781 L 65.7715 -61.4258 C 66.4551 -70.4102 61.3281 -77.7832 52.2949 -77.7832 C 45.2148 -77.7832 40.5762 -73.877 34.2285 -67.6758 L 24.2676 -57.8613 C 20.8984 -54.4922 19.8242 -51.7578 19.5312 -47.6074 L 18.2617 -31.9824 C 17.9688 -28.0273 20.166 -25.3906 23.6328 -25.1953 C 27.0508 -24.9512 29.5898 -26.9531 29.9805 -31.1523 L 31.3965 -48.6328 L 37.5488 -54.0527 C 38.623 -55.0293 40.2344 -54.541 40.1367 -52.8809 L 39.0137 -37.1582 C 38.4766 -29.9316 41.5527 -24.6094 45.166 -20.0684 L 58.0566 -3.85742 C 59.3262 -2.29492 59.5215 -1.61133 60.1074 -0.488281 L 73.877 27.3438 C 75.3906 30.4199 77.6367 31.4453 80.0781 31.4453 Z M 82.373 -39.7461 L 96.7285 -39.7461 C 100.732 -39.7461 103.32 -41.9922 103.32 -45.5566 C 103.32 -49.1211 100.732 -51.3672 96.7285 -51.3672 L 81.543 -51.3672 L 70.166 -63.6719 L 69.043 -47.9004 L 74.4629 -42.5781 C 76.6602 -40.4297 78.7109 -39.7461 82.373 -39.7461 Z M 22.0215 31.4453 C 24.1211 31.4453 25.9277 30.5664 27.1484 29.1016 L 46.4355 6.15234 C 48.4863 3.71094 48.584 3.22266 49.3652 0.878906 C 50.0977 -1.31836 50.6836 -3.4668 51.1719 -5.46875 L 40.625 -18.5547 L 37.2559 -2.24609 L 19.043 19.4336 C 17.334 21.3867 16.0645 22.998 16.0645 25.5859 C 16.0645 29.0527 18.6523 31.4453 22.0215 31.4453 Z"/>
  </g>
  <g id="Thin-L" transform="matrix(1 0 0 1 797.706 1556)">
   <path d="M 58.0566 -82.5195 C 65.6738 -82.5195 71.8262 -88.8672 71.8262 -96.2402 C 71.8262 -103.809 65.6738 -110.107 58.0566 -110.107 C 50.4395 -110.107 44.3359 -103.809 44.3359 -96.2402 C 44.3359 -88.8672 50.4395 -82.5195 58.0566 -82.5195 Z M 78.6621 29.4922 C 81.5918 29.4922 84.4727 27.1484 84.4727 23.0957 C 84.4727 21.582 83.9844 20.1172 83.1543 18.4082 L 70.6543 -7.03125 C 69.5801 -9.13086 68.2129 -11.377 67.0898 -12.9883 L 59.1797 -24.3164 L 59.668 -25.9277 C 61.6699 -32.6172 62.7441 -36.6699 63.1836 -43.2617 L 64.502 -61.7676 C 65.1367 -70.6055 60.2051 -77.8809 51.5137 -77.8809 C 44.5312 -77.8809 39.9414 -74.0723 33.7402 -67.9199 L 23.9258 -58.3008 C 20.6543 -54.9805 19.5801 -52.2461 19.2871 -48.1934 L 18.0664 -32.7148 C 17.7246 -28.9062 19.8242 -26.416 23.0957 -26.2207 C 26.416 -25.9766 28.9551 -27.8809 29.2969 -31.9336 L 30.6641 -49.3652 L 36.9629 -54.8828 C 38.0371 -55.8594 39.6484 -55.3711 39.5508 -53.7598 L 38.4277 -37.9395 C 37.9395 -30.8594 40.918 -25.5859 44.4824 -21.1426 L 57.1777 -5.22461 C 58.3984 -3.71094 58.5938 -3.02734 59.1797 -1.9043 L 72.7539 25.5371 C 74.2188 28.4668 76.3184 29.4922 78.6621 29.4922 Z M 80.7617 -40.4785 L 95.0195 -40.4785 C 98.877 -40.4785 101.367 -42.6758 101.367 -46.0938 C 101.367 -49.5117 98.877 -51.6113 95.0195 -51.6113 L 79.9316 -51.6113 L 68.1641 -64.3066 L 67.041 -49.1211 L 72.998 -43.2617 C 75.1465 -41.1621 77.1973 -40.4785 80.7617 -40.4785 Z M 21.7773 29.4922 C 23.7793 29.4922 25.5859 28.6133 26.7578 27.1484 L 45.752 4.63867 C 47.8516 2.14844 47.8516 1.70898 48.584 -0.537109 C 49.3652 -3.02734 50.0977 -5.51758 50.6348 -7.71484 L 40.4297 -20.4102 L 36.9629 -3.61328 L 18.9941 17.8223 C 17.334 19.7754 16.0645 21.3867 16.0645 23.877 C 16.0645 27.1484 18.5059 29.4922 21.7773 29.4922 Z"/>
  </g>
  <g id="Ultralight-L" transform="matrix(1 0 0 1 501.508 1556)">
   <path d="M 57.4219 -82.4219 C 64.9414 -82.4219 70.9961 -88.623 70.9961 -95.8984 C 70.9961 -103.32 64.9414 -109.57 57.4219 -109.57 C 49.9512 -109.57 43.9453 -103.32 43.9453 -95.8984 C 43.9453 -88.623 49.9512 -82.4219 57.4219 -82.4219 Z M 77.9785 28.5156 C 80.8105 28.5156 83.5938 26.1719 83.5938 22.168 C 83.5938 20.6543 83.1543 19.2383 82.3242 17.5293 L 69.9219 -7.66602 C 68.8965 -9.76562 67.5293 -12.0117 66.4062 -13.623 L 58.5449 -24.8047 L 59.0332 -26.416 C 61.0352 -33.0566 62.0605 -37.0605 62.5488 -43.6523 L 63.8184 -61.9629 C 64.502 -70.7031 59.6191 -77.9297 51.0742 -77.9297 C 44.1895 -77.9297 39.6484 -74.1699 33.4961 -68.0664 L 23.7793 -58.5449 C 20.5078 -55.2734 19.4824 -52.5391 19.1406 -48.5352 L 17.9199 -33.1055 C 17.627 -29.3945 19.6777 -26.9043 22.8516 -26.7578 C 26.123 -26.5137 28.6133 -28.3203 28.9062 -32.3242 L 30.2734 -49.7559 L 36.6699 -55.3223 C 37.6953 -56.2988 39.3066 -55.8105 39.2578 -54.248 L 38.1348 -38.3789 C 37.6465 -31.2988 40.5762 -26.123 44.1406 -21.6797 L 56.6895 -5.95703 C 57.9102 -4.39453 58.1543 -3.75977 58.6914 -2.63672 L 72.168 24.6094 C 73.584 27.4414 75.6348 28.5156 77.9785 28.5156 Z M 79.9316 -40.8203 L 94.1406 -40.8203 C 97.9492 -40.8203 100.342 -42.9688 100.342 -46.3379 C 100.342 -49.6582 97.9492 -51.7578 94.1406 -51.7578 L 79.1016 -51.7578 L 67.0898 -64.5996 L 65.9668 -49.707 L 72.2168 -43.6523 C 74.4141 -41.5527 76.416 -40.8203 79.9316 -40.8203 Z M 21.6309 28.5156 C 23.6328 28.5156 25.3906 27.6367 26.6113 26.1719 L 45.4102 3.85742 C 47.5098 1.31836 47.5098 0.976562 48.1934 -1.26953 C 49.0234 -3.95508 49.7559 -6.5918 50.3418 -8.88672 L 40.2832 -21.3379 L 36.8164 -4.3457 L 18.9453 16.9922 C 17.334 18.9453 16.0645 20.5566 16.0645 22.998 C 16.0645 26.1719 18.457 28.5156 21.6309 28.5156 Z"/>
  </g>
  <g id="Black-M" transform="matrix(1 0 0 1 2878.64 1126)">
   <path d="M 54.4434 -82.666 C 61.6211 -82.666 67.4805 -88.623 67.4805 -95.5566 C 67.4805 -102.783 61.6211 -108.594 54.4434 -108.594 C 47.2656 -108.594 41.5527 -102.783 41.5527 -95.5566 C 41.5527 -88.623 47.2656 -82.666 54.4434 -82.666 Z M 72.3633 20.8008 C 76.2695 20.8008 79.4434 18.0176 79.4434 14.209 C 79.4434 13.0371 79.1504 11.8164 78.4668 10.4492 L 66.1133 -14.4043 C 64.7949 -17.1387 63.6719 -18.75 62.6953 -20.1172 L 56.3477 -29.1992 L 56.5918 -30.0781 C 58.4961 -36.7676 59.082 -40.7227 59.5215 -46.4355 L 60.6934 -61.9629 C 61.377 -70.6543 56.4453 -77.8809 46.7285 -77.8809 C 40.5273 -77.8809 34.5215 -74.9023 28.418 -68.7988 L 19.6289 -60.0586 C 16.6504 -57.0801 15.6738 -54.6875 15.3809 -50.9277 L 14.2578 -37.8906 C 13.8672 -33.8379 16.3086 -31.2012 19.873 -30.957 C 23.584 -30.7129 26.2695 -32.8125 26.6602 -37.1582 L 27.7832 -51.0742 L 32.9102 -55.5664 C 33.8867 -56.4453 35.3516 -55.957 35.2051 -54.4434 L 34.2773 -41.6504 C 33.7891 -35.1562 37.1094 -30.4688 40.2832 -26.416 L 51.7578 -11.9629 C 52.7832 -10.7422 53.0273 -10.3027 53.6133 -9.08203 L 66.1621 16.4551 C 67.5781 19.4336 69.9219 20.8008 72.3633 20.8008 Z M 76.0254 -42.8223 L 90.4785 -42.8223 C 94.7266 -42.8223 97.0215 -45.459 97.0215 -49.0234 C 97.1191 -52.6367 94.6777 -55.2734 90.332 -55.2734 L 75.8301 -55.2734 L 66.0645 -65.332 L 64.9414 -49.3164 L 68.8965 -45.3125 C 70.8008 -43.3105 72.7051 -42.8223 76.0254 -42.8223 Z M 19.3359 20.8008 C 21.2891 20.8008 23.2422 19.7754 24.9512 17.7734 L 42.4805 -3.17383 C 44.4824 -5.51758 44.873 -6.34766 45.5078 -8.39844 C 45.7031 -9.0332 45.8496 -9.76562 45.9961 -10.3027 L 34.8145 -24.2188 L 32.0312 -11.7188 L 14.4531 8.98438 C 13.0859 10.5957 12.4512 12.3047 12.4512 13.916 C 12.4512 17.6758 15.6738 20.8008 19.3359 20.8008 Z"/>
  </g>
  <g id="Heavy-M" transform="matrix(1 0 0 1 2583.71 1126)">
   <path d="M 52.6855 -80.2246 C 59.668 -80.2246 65.3809 -85.9863 65.3809 -92.7246 C 65.3809 -99.8047 59.668 -105.42 52.6855 -105.42 C 45.7031 -105.42 40.1855 -99.8047 40.1855 -92.7246 C 40.1855 -85.9863 45.7031 -80.2246 52.6855 -80.2246 Z M 70.2637 20.2637 C 73.8281 20.2637 76.8555 17.6758 76.8555 13.9648 C 76.8555 12.793 76.5137 11.5234 75.8301 10.1562 L 64.0137 -13.623 C 62.8418 -16.0645 61.7188 -17.7246 60.7422 -19.0918 L 54.3457 -28.1738 L 54.6387 -29.1504 C 56.543 -35.5469 57.1289 -39.3555 57.5684 -44.9707 L 58.6914 -60.3516 C 59.375 -68.7012 54.5898 -75.5859 45.459 -75.5859 C 39.4043 -75.5859 33.9355 -72.5586 28.0762 -66.748 L 19.5312 -58.252 C 16.6016 -55.3223 15.6738 -52.9785 15.3809 -49.3652 L 14.3066 -36.4746 C 13.916 -32.6172 16.2109 -30.127 19.6289 -29.8828 C 23.0957 -29.6387 25.6348 -31.6406 26.0254 -35.791 L 27.1484 -49.6094 L 32.1289 -54.0039 C 33.1055 -54.834 34.5215 -54.3945 34.375 -52.9297 L 33.4473 -40.2832 C 32.959 -33.9844 36.084 -29.3945 39.209 -25.4395 L 50.3906 -11.377 C 51.416 -10.1562 51.6113 -9.66797 52.1484 -8.59375 L 64.3066 16.1621 C 65.7227 18.9941 67.9199 20.2637 70.2637 20.2637 Z M 73.5352 -41.6504 L 87.207 -41.6504 C 91.2598 -41.6504 93.5059 -44.0918 93.5059 -47.5098 C 93.5547 -50.9766 91.2109 -53.418 87.1094 -53.418 L 73.2422 -53.418 L 63.8184 -63.2812 L 62.7441 -47.998 L 66.6016 -44.0918 C 68.5059 -42.1875 70.3125 -41.6504 73.5352 -41.6504 Z M 18.8965 20.2637 C 20.752 20.2637 22.5586 19.2871 24.1211 17.4805 L 41.1133 -2.7832 C 43.0176 -5.0293 43.3594 -5.76172 43.9941 -7.8125 C 44.2383 -8.59375 44.4824 -9.47266 44.6289 -10.2051 L 34.082 -23.3398 L 31.3477 -10.9375 L 14.502 8.93555 C 13.1348 10.5469 12.4512 12.1094 12.4512 13.8184 C 12.4512 17.3828 15.3809 20.2637 18.8965 20.2637 Z"/>
  </g>
  <g id="Bold-M" transform="matrix(1 0 0 1 2288.98 1126)">
   <path d="M 50.7812 -77.4902 C 57.5195 -77.4902 63.0371 -83.0566 63.0371 -89.5996 C 63.0371 -96.4355 57.5195 -101.904 50.7812 -101.904 C 43.9941 -101.904 38.6719 -96.4355 38.6719 -89.5996 C 38.6719 -83.0566 43.9941 -77.4902 50.7812 -77.4902 Z M 67.9199 19.6289 C 71.1426 19.6289 73.9258 17.2852 73.9258 13.7207 C 73.9258 12.4512 73.584 11.2793 72.9004 9.91211 L 61.7188 -12.6953 C 60.5957 -14.9414 59.5215 -16.6016 58.5449 -17.9688 L 52.1484 -27.0508 L 52.4902 -28.125 C 54.3457 -34.1797 54.9805 -37.793 55.3711 -43.3105 L 56.4941 -58.5449 C 57.0801 -66.5039 52.5391 -72.998 43.9941 -72.998 C 38.1348 -72.998 33.3008 -69.9707 27.7344 -64.4531 L 19.3848 -56.2012 C 16.5527 -53.3691 15.6738 -51.123 15.3809 -47.5586 L 14.3066 -34.9121 C 14.0137 -31.2988 16.1133 -28.9062 19.3848 -28.7109 C 22.6074 -28.4668 24.9512 -30.3711 25.293 -34.2285 L 26.416 -47.9492 L 31.2988 -52.2461 C 32.2266 -53.0762 33.5938 -52.6367 33.4473 -51.2207 L 32.5684 -38.7695 C 32.0801 -32.666 34.9609 -28.2227 37.9883 -24.4141 L 48.8281 -10.7422 C 49.8535 -9.47266 50.0488 -9.0332 50.5371 -8.00781 L 62.2559 15.7715 C 63.623 18.5059 65.7227 19.6289 67.9199 19.6289 Z M 70.752 -40.3809 L 83.5938 -40.3809 C 87.3535 -40.3809 89.5508 -42.627 89.5508 -45.8496 C 89.5996 -49.1211 87.3047 -51.3672 83.5449 -51.3672 L 70.3125 -51.3672 L 61.2793 -60.9863 L 60.2539 -46.5332 L 64.0137 -42.7734 C 65.8691 -40.8691 67.627 -40.3809 70.752 -40.3809 Z M 18.3594 19.6289 C 20.166 19.6289 21.875 18.75 23.1934 17.1875 L 39.5996 -2.39258 C 41.3574 -4.49219 41.6504 -5.12695 42.2852 -7.08008 C 42.627 -8.10547 42.8711 -9.13086 43.1152 -10.0586 L 33.252 -22.3145 L 30.5664 -10.0098 L 14.5996 8.83789 C 13.2324 10.4492 12.4512 11.9141 12.4512 13.7695 C 12.4512 17.0898 15.0879 19.6289 18.3594 19.6289 Z"/>
  </g>
  <g id="Semibold-M" transform="matrix(1 0 0 1 1993.63 1126)">
   <path d="M 49.4629 -75.5859 C 56.0547 -75.5859 61.4258 -81.0547 61.4258 -87.4512 C 61.4258 -94.0918 56.0547 -99.4629 49.4629 -99.4629 C 42.8223 -99.4629 37.5977 -94.0918 37.5977 -87.4512 C 37.5977 -81.0547 42.8223 -75.5859 49.4629 -75.5859 Z M 66.3086 19.1895 C 69.2871 19.1895 71.9238 16.9922 71.9238 13.5254 C 71.9238 12.2559 71.5332 11.084 70.8496 9.7168 L 60.1074 -12.1094 C 59.082 -14.1113 58.0078 -15.8203 57.0312 -17.1875 L 50.6348 -26.2695 L 51.0254 -27.4414 C 52.832 -33.252 53.4668 -36.7676 53.8574 -42.1875 L 54.9805 -57.3242 C 55.5176 -64.9414 51.123 -71.2402 43.0176 -71.2402 C 37.2559 -71.2402 32.8125 -68.1641 27.4414 -62.8418 L 19.2871 -54.7852 C 16.5039 -52.0508 15.625 -49.8047 15.3809 -46.3379 L 14.3555 -33.8379 C 14.0625 -30.3223 16.0645 -28.0762 19.1895 -27.8809 C 22.2168 -27.6367 24.4629 -29.4434 24.8047 -33.1543 L 25.9277 -46.8262 L 30.7129 -51.0742 C 31.6406 -51.8555 32.9102 -51.416 32.8125 -50.0488 L 31.9336 -37.7441 C 31.4941 -31.7383 34.1797 -27.3926 37.1582 -23.6816 L 47.8027 -10.3027 C 48.7793 -9.0332 48.9746 -8.54492 49.4629 -7.56836 L 60.8398 15.5273 C 62.1582 18.2129 64.209 19.1895 66.3086 19.1895 Z M 68.7988 -39.502 L 81.0547 -39.502 C 84.6191 -39.502 86.8164 -41.6016 86.8164 -44.7266 C 86.8164 -47.8516 84.6191 -49.9512 81.0547 -49.9512 L 68.3105 -49.9512 L 59.5215 -59.375 L 58.5449 -45.5566 L 62.2559 -41.8457 C 64.0625 -40.0391 65.7715 -39.502 68.7988 -39.502 Z M 17.9688 19.1895 C 19.7266 19.1895 21.3379 18.3594 22.5098 16.9434 L 38.5254 -2.09961 C 40.2344 -4.15039 40.4785 -4.6875 41.1133 -6.5918 C 41.5039 -7.76367 41.7969 -8.88672 42.0898 -10.0098 L 32.7148 -21.6309 L 30.0293 -9.32617 L 14.6973 8.78906 C 13.3301 10.4004 12.4512 11.8164 12.4512 13.7207 C 12.4512 16.8457 14.8926 19.1895 17.9688 19.1895 Z"/>
  </g>
  <g id="Medium-M" transform="matrix(1 0 0 1 1697.95 1126)">
   <path d="M 48.4375 -74.1699 C 54.9316 -74.1699 60.2051 -79.541 60.2051 -85.791 C 60.2051 -92.334 54.9316 -97.6074 48.4375 -97.6074 C 41.9434 -97.6074 36.8164 -92.334 36.8164 -85.791 C 36.8164 -79.541 41.9434 -74.1699 48.4375 -74.1699 Z M 65.0879 18.8477 C 67.8711 18.8477 70.3613 16.7969 70.3613 13.3789 C 70.3613 12.1094 70.0195 10.9375 69.3359 9.57031 L 58.8867 -11.6211 C 57.959 -13.5254 56.8848 -15.2344 55.9082 -16.6016 L 49.5117 -25.6836 L 49.9023 -26.9043 C 51.6602 -32.5195 52.3438 -35.9375 52.7344 -41.3086 L 53.8086 -56.3965 C 54.3457 -63.8184 50.0488 -69.873 42.2852 -69.873 C 36.6211 -69.873 32.5195 -66.7969 27.2461 -61.6699 L 19.2383 -53.7109 C 16.5039 -51.0254 15.625 -48.8281 15.3809 -45.4102 L 14.3555 -33.0078 C 14.1113 -29.6387 16.0156 -27.4414 19.043 -27.2461 C 21.9238 -27.0508 24.0723 -28.7598 24.4141 -32.373 L 25.5371 -45.9473 L 30.2734 -50.1465 C 31.1523 -50.9277 32.4219 -50.4883 32.3242 -49.1699 L 31.4453 -36.9629 C 31.0059 -31.0547 33.5938 -26.7578 36.5234 -23.0957 L 46.9727 -9.96094 C 47.998 -8.69141 48.1445 -8.20312 48.6328 -7.27539 L 59.7656 15.332 C 61.084 17.9688 63.0371 18.8477 65.0879 18.8477 Z M 67.3828 -38.8184 L 79.1992 -38.8184 C 82.6172 -38.8184 84.7656 -40.8203 84.7656 -43.8477 C 84.7656 -46.875 82.5684 -48.877 79.1504 -48.877 L 66.7969 -48.877 L 58.2031 -58.2031 L 57.2754 -44.7754 L 60.9375 -41.1133 C 62.6953 -39.3555 64.3555 -38.8184 67.3828 -38.8184 Z M 17.7246 18.8477 C 19.4336 18.8477 20.9473 18.0664 22.0215 16.7969 L 37.7441 -1.9043 C 39.3555 -3.85742 39.5508 -4.3457 40.2344 -6.25 C 40.625 -7.51953 40.9668 -8.74023 41.2598 -9.91211 L 32.2754 -21.1426 L 29.6387 -8.88672 L 14.7461 8.78906 C 13.3789 10.3516 12.4512 11.7188 12.4512 13.6719 C 12.4512 16.6992 14.7461 18.8477 17.7246 18.8477 Z"/>
  </g>
  <g id="Regular-M" transform="matrix(1 0 0 1 1402.6 1126)">
   <path d="M 47.1191 -72.2656 C 53.4668 -72.2656 58.5938 -77.5391 58.5938 -83.6426 C 58.5938 -90.0391 53.4668 -95.166 47.1191 -95.166 C 40.7715 -95.166 35.7422 -90.0391 35.7422 -83.6426 C 35.7422 -77.5391 40.7715 -72.2656 47.1191 -72.2656 Z M 63.4766 18.457 C 66.0156 18.457 68.4082 16.5527 68.4082 13.1836 C 68.4082 11.9141 68.0176 10.7422 67.334 9.375 L 57.2754 -10.9863 C 56.4453 -12.6953 55.3711 -14.4531 54.3945 -15.8203 L 47.998 -24.9023 L 48.4375 -26.2207 C 50.1953 -31.5918 50.8789 -34.9121 51.2695 -40.1855 L 52.2949 -55.1758 C 52.7832 -62.3047 48.6816 -68.1641 41.3086 -68.1641 C 35.7422 -68.1641 32.0801 -65.0391 27.002 -60.1074 L 19.1406 -52.3438 C 16.4551 -49.6582 15.625 -47.5098 15.3809 -44.1895 L 14.4043 -31.9336 C 14.1602 -28.7109 15.9668 -26.6113 18.8477 -26.416 C 21.582 -26.2207 23.6328 -27.8809 23.9258 -31.2988 L 25.0488 -44.8242 L 29.6875 -48.9258 C 30.5664 -49.707 31.7871 -49.3164 31.6895 -48.0469 L 30.8105 -35.9375 C 30.4199 -30.1758 32.8613 -25.9766 35.6934 -22.4121 L 45.8984 -9.52148 C 46.9727 -8.25195 47.0703 -7.76367 47.5098 -6.88477 L 58.3984 15.0879 C 59.668 17.627 61.5234 18.457 63.4766 18.457 Z M 65.4785 -37.9883 L 76.709 -37.9883 C 79.9316 -37.9883 82.0312 -39.7949 82.0312 -42.7246 C 82.0312 -45.6055 79.9316 -47.5098 76.709 -47.5098 L 64.7949 -47.5098 L 56.4453 -56.5918 L 55.5664 -43.7988 L 59.1797 -40.1855 C 60.9375 -38.4766 62.5488 -37.9883 65.4785 -37.9883 Z M 17.334 18.457 C 18.9941 18.457 20.459 17.7246 21.3867 16.6016 L 36.6699 -1.61133 C 38.2324 -3.4668 38.4277 -3.90625 39.0625 -5.76172 C 39.5508 -7.17773 39.8926 -8.49609 40.2344 -9.86328 L 31.6895 -20.459 L 29.1504 -8.25195 L 14.7949 8.74023 C 13.4277 10.3027 12.4512 11.5723 12.4512 13.623 C 12.4512 16.5039 14.5508 18.457 17.334 18.457 Z"/>
  </g>
  <g id="Light-M" transform="matrix(1 0 0 1 1106.55 1126)">
   <path d="M 46.3379 -72.1191 C 52.4902 -72.1191 57.4707 -77.2461 57.4707 -83.2031 C 57.4707 -89.4043 52.4902 -94.4336 46.3379 -94.4336 C 40.1367 -94.4336 35.2539 -89.4043 35.2539 -83.2031 C 35.2539 -77.2461 40.1367 -72.1191 46.3379 -72.1191 Z M 62.5488 17.1387 C 64.9414 17.1387 67.2852 15.2344 67.2852 11.9629 C 67.2852 10.6934 66.8945 9.57031 66.2598 8.20312 L 56.3477 -11.9141 C 55.4688 -13.5742 54.4434 -15.332 53.4668 -16.6504 L 47.168 -25.6348 L 47.6074 -26.9043 C 49.2676 -32.1777 50.0488 -35.4492 50.3906 -40.6738 L 51.416 -55.4199 C 51.9043 -62.4023 47.9004 -68.2129 40.7715 -68.2129 C 35.3027 -68.2129 31.6406 -65.1367 26.6602 -60.2539 L 18.8965 -52.6367 C 16.3086 -50 15.4297 -47.8516 15.1855 -44.6289 L 14.2578 -32.4707 C 13.9648 -29.3457 15.7227 -27.2949 18.5059 -27.0996 C 21.1914 -26.9043 23.1445 -28.4668 23.4375 -31.8359 L 24.5605 -45.3613 L 29.2969 -49.5117 C 30.127 -50.293 31.3965 -49.9023 31.2988 -48.6328 L 30.4199 -36.4746 C 30.0293 -30.8105 32.4219 -26.6602 35.2051 -23.1445 L 45.3125 -10.4492 C 46.2891 -9.22852 46.4355 -8.69141 46.875 -7.86133 L 57.6172 13.8672 C 58.8379 16.3086 60.6445 17.1387 62.5488 17.1387 Z M 64.3555 -38.4766 L 75.5371 -38.4766 C 78.7109 -38.4766 80.7129 -40.2344 80.7129 -43.0664 C 80.7129 -45.8496 78.7109 -47.6562 75.5371 -47.6562 L 63.7207 -47.6562 L 55.0781 -57.0312 L 54.1992 -44.6289 L 58.2031 -40.6738 C 59.9121 -39.0137 61.5234 -38.4766 64.3555 -38.4766 Z M 17.1875 17.1387 C 18.7988 17.1387 20.2148 16.4062 21.1426 15.2832 L 36.2305 -2.68555 C 37.793 -4.54102 37.8906 -4.93164 38.5254 -6.73828 C 39.0625 -8.34961 39.502 -9.91211 39.8438 -11.377 L 31.543 -21.6797 L 28.9551 -9.17969 L 14.7461 7.66602 C 13.4277 9.22852 12.4512 10.4492 12.4512 12.4512 C 12.4512 15.2344 14.502 17.1387 17.1875 17.1387 Z"/>
  </g>
  <g id="Thin-M" transform="matrix(1 0 0 1 810.719 1126)">
   <path d="M 45.2637 -71.9238 C 51.2207 -71.9238 56.0059 -76.9043 56.0059 -82.666 C 56.0059 -88.5742 51.2207 -93.5059 45.2637 -93.5059 C 39.2578 -93.5059 34.5215 -88.5742 34.5215 -82.666 C 34.5215 -76.9043 39.2578 -71.9238 45.2637 -71.9238 Z M 61.2793 15.3809 C 63.5742 15.3809 65.8203 13.5254 65.8203 10.3516 C 65.8203 9.17969 65.4297 8.00781 64.7949 6.68945 L 55.0781 -13.0859 C 54.248 -14.6973 53.1738 -16.4551 52.2949 -17.7246 L 46.0938 -26.5625 L 46.4844 -27.7832 C 48.0957 -33.0078 48.877 -36.1816 49.2676 -41.3086 L 50.2441 -55.7129 C 50.7812 -62.5977 46.875 -68.2617 40.0879 -68.2617 C 34.668 -68.2617 31.1035 -65.2832 26.2207 -60.498 L 18.6523 -53.0273 C 16.0645 -50.4395 15.2344 -48.3398 14.9902 -45.166 L 14.0625 -33.1543 C 13.7695 -30.127 15.4297 -28.1738 18.0176 -28.0273 C 20.6055 -27.832 22.5586 -29.3457 22.8516 -32.5195 L 23.9258 -46.0449 L 28.7598 -50.293 C 29.5898 -51.0254 30.8594 -50.6836 30.7617 -49.4141 L 29.8828 -37.1582 C 29.4922 -31.6406 31.8359 -27.5391 34.6191 -24.0723 L 44.4824 -11.6699 C 45.459 -10.498 45.6055 -9.96094 46.0449 -9.13086 L 56.5918 12.2559 C 57.7637 14.5508 59.4238 15.3809 61.2793 15.3809 Z M 62.9395 -39.1113 L 74.0234 -39.1113 C 77.0508 -39.1113 78.9551 -40.8203 78.9551 -43.5059 C 78.9551 -46.1914 77.0508 -47.8516 74.0234 -47.8516 L 62.3047 -47.8516 L 53.2715 -57.6172 L 52.3926 -45.7031 L 56.8848 -41.3086 C 58.5938 -39.6973 60.1562 -39.1113 62.9395 -39.1113 Z M 16.9434 15.3809 C 18.5059 15.3809 19.9219 14.6484 20.8496 13.5254 L 35.5957 -4.00391 C 37.207 -5.9082 37.2559 -6.25 37.8418 -8.05664 C 38.4277 -9.91211 38.9648 -11.7676 39.3555 -13.4277 L 31.3477 -23.3398 L 28.7109 -10.4492 L 14.6973 6.25 C 13.4277 7.76367 12.4512 8.98438 12.4512 10.9375 C 12.4512 13.5254 14.3555 15.3809 16.9434 15.3809 Z"/>
  </g>
  <g id="Ultralight-M" transform="matrix(1 0 0 1 514.447 1126)">
   <path d="M 44.6777 -71.8262 C 50.5371 -71.8262 55.2734 -76.709 55.2734 -82.373 C 55.2734 -88.1348 50.5371 -93.0176 44.6777 -93.0176 C 38.8184 -93.0176 34.1797 -88.1348 34.1797 -82.373 C 34.1797 -76.709 38.8184 -71.8262 44.6777 -71.8262 Z M 60.6445 14.4531 C 62.8906 14.4531 65.0391 12.6465 65.0391 9.57031 C 65.0391 8.34961 64.6973 7.22656 64.0625 5.95703 L 54.3945 -13.6719 C 53.6133 -15.2832 52.5391 -17.041 51.6602 -18.3105 L 45.5566 -27.002 L 45.9473 -28.2715 C 47.5098 -33.4473 48.291 -36.5234 48.6816 -41.6504 L 49.6582 -55.9082 C 50.1953 -62.6953 46.3867 -68.3105 39.6973 -68.3105 C 34.375 -68.3105 30.8105 -65.3809 26.0254 -60.6445 L 18.5059 -53.2227 C 15.918 -50.6836 15.1367 -48.5352 14.8926 -45.459 L 13.916 -33.4961 C 13.6719 -30.5664 15.2832 -28.6133 17.7734 -28.5156 C 20.3613 -28.3203 22.2656 -29.7363 22.5098 -32.8613 L 23.584 -46.3867 L 28.5156 -50.6836 C 29.2969 -51.416 30.5664 -51.0742 30.5176 -49.8047 L 29.6387 -37.5488 C 29.248 -32.0312 31.543 -28.0273 34.2773 -24.5605 L 44.0918 -12.3047 C 45.0195 -11.1328 45.2148 -10.6445 45.6543 -9.76562 L 56.1035 11.4258 C 57.2266 13.6719 58.8379 14.4531 60.6445 14.4531 Z M 62.207 -39.4531 L 73.1934 -39.4531 C 76.2207 -39.4531 78.0762 -41.1621 78.0762 -43.75 C 78.0762 -46.3867 76.2207 -47.998 73.1934 -47.998 L 61.5723 -47.998 L 52.3438 -57.9102 L 51.4648 -46.2891 L 56.2012 -41.6504 C 57.9102 -40.0391 59.4727 -39.4531 62.207 -39.4531 Z M 16.7969 14.4531 C 18.3594 14.4531 19.7266 13.7695 20.6543 12.6465 L 35.3027 -4.73633 C 36.9141 -6.64062 36.9141 -6.98242 37.5 -8.69141 C 38.0859 -10.6934 38.6719 -12.6953 39.1113 -14.4531 L 31.25 -24.1699 L 28.5645 -11.084 L 14.6973 5.51758 C 13.4277 6.98242 12.4512 8.25195 12.4512 10.1562 C 12.4512 12.6465 14.3066 14.4531 16.7969 14.4531 Z"/>
  </g>
  <g id="Black-S" transform="matrix(1 0 0 1 2890.63 696)">
   <path d="M 42.5293 -72.2168 C 48.1445 -72.2168 52.7344 -76.8555 52.7344 -82.2754 C 52.7344 -87.9395 48.1445 -92.4805 42.5293 -92.4805 C 36.9141 -92.4805 32.4707 -87.9395 32.4707 -82.2754 C 32.4707 -76.8555 36.9141 -72.2168 42.5293 -72.2168 Z M 56.543 8.64258 C 59.5703 8.64258 62.0605 6.49414 62.0605 3.51562 C 62.0605 2.58789 61.8164 1.61133 61.2793 0.537109 L 51.6602 -18.8477 C 50.6348 -20.9473 49.7559 -22.2168 48.9746 -23.291 L 43.9941 -30.4199 L 44.1895 -31.1035 C 45.7031 -36.3281 46.1426 -39.4043 46.4844 -43.8965 L 47.4121 -56.0547 C 47.9492 -62.8418 44.0918 -68.457 36.5234 -68.457 C 31.6895 -68.457 27.002 -66.1133 22.2656 -61.377 L 15.3809 -54.541 C 13.0371 -52.1973 12.3047 -50.3418 12.0605 -47.4121 L 11.1816 -37.207 C 10.8887 -34.0332 12.793 -31.9824 15.5762 -31.7871 C 18.457 -31.5918 20.5566 -33.252 20.8496 -36.6211 L 21.7285 -47.5098 L 25.7324 -51.0254 C 26.5137 -51.709 27.6367 -51.3184 27.5391 -50.1465 L 26.8066 -40.1367 C 26.416 -35.0586 29.0039 -31.3965 31.4941 -28.2227 L 40.4785 -16.9434 C 41.2598 -15.9668 41.4551 -15.625 41.8945 -14.6973 L 51.709 5.27344 C 52.832 7.56836 54.6387 8.64258 56.543 8.64258 Z M 59.375 -41.0645 L 70.6543 -41.0645 C 73.9746 -41.0645 75.7812 -43.1152 75.7812 -45.8984 C 75.8301 -48.7305 73.9258 -50.7812 70.5566 -50.7812 L 59.2285 -50.7812 L 51.6113 -58.6426 L 50.7324 -46.1426 L 53.8086 -43.0176 C 55.3223 -41.4551 56.7871 -41.0645 59.375 -41.0645 Z M 15.1367 8.64258 C 16.6504 8.64258 18.1641 7.86133 19.4824 6.29883 L 33.2031 -10.0586 C 34.7656 -11.9141 35.0586 -12.5488 35.5469 -14.1602 C 35.6934 -14.6484 35.8398 -15.2344 35.9375 -15.6738 L 27.2461 -26.5137 L 25.0488 -16.748 L 11.3281 -0.585938 C 10.2539 0.683594 9.76562 2.00195 9.76562 3.27148 C 9.76562 6.20117 12.2559 8.64258 15.1367 8.64258 Z"/>
  </g>
  <g id="Heavy-S" transform="matrix(1 0 0 1 2595.19 696)">
   <path d="M 41.3086 -70.3613 C 46.7773 -70.3613 51.2695 -74.9023 51.2695 -80.1758 C 51.2695 -85.6934 46.7773 -90.1367 41.3086 -90.1367 C 35.8398 -90.1367 31.4941 -85.6934 31.4941 -80.1758 C 31.4941 -74.9023 35.8398 -70.3613 41.3086 -70.3613 Z M 55.0293 8.34961 C 57.8613 8.34961 60.2051 6.34766 60.2051 3.4668 C 60.2051 2.49023 59.9121 1.5625 59.375 0.488281 L 50.1953 -18.1152 C 49.2188 -20.0684 48.3398 -21.3379 47.5586 -22.4121 L 42.5781 -29.5898 L 42.8223 -30.3223 C 44.2871 -35.3027 44.7754 -38.2812 45.1172 -42.7246 L 45.9961 -54.7852 C 46.4844 -61.3281 42.7734 -66.6992 35.5957 -66.6992 C 30.8594 -66.6992 26.6113 -64.3066 22.0703 -59.7656 L 15.332 -53.125 C 13.0371 -50.8301 12.3047 -49.0234 12.0605 -46.1426 L 11.2305 -36.084 C 10.9375 -33.0566 12.7441 -31.0547 15.4297 -30.9082 C 18.1641 -30.7129 20.1172 -32.2754 20.4102 -35.498 L 21.2891 -46.3379 L 25.1953 -49.7559 C 25.9766 -50.4395 27.0508 -50.0488 26.9531 -48.9258 L 26.2207 -39.0625 C 25.8301 -34.082 28.2715 -30.5176 30.7129 -27.4414 L 39.502 -16.4062 C 40.2832 -15.4297 40.4297 -15.0391 40.8691 -14.209 L 50.3906 5.17578 C 51.4648 7.37305 53.2227 8.34961 55.0293 8.34961 Z M 57.6172 -40.1367 L 68.3105 -40.1367 C 71.4355 -40.1367 73.2422 -42.041 73.2422 -44.7266 C 73.2422 -47.4609 71.3867 -49.3652 68.2129 -49.3652 L 57.373 -49.3652 L 50.0488 -57.0312 L 49.2188 -45.0684 L 52.1484 -42.041 C 53.6621 -40.5273 55.0781 -40.1367 57.6172 -40.1367 Z M 14.7949 8.34961 C 16.2598 8.34961 17.6758 7.61719 18.8965 6.25 L 32.2266 -9.66797 C 33.6914 -11.4258 33.9355 -12.0117 34.4238 -13.5742 C 34.6191 -14.1602 34.8145 -14.8438 34.9609 -15.4297 L 26.709 -25.6836 L 24.5605 -16.0156 L 11.377 -0.488281 C 10.3027 0.78125 9.76562 2.00195 9.76562 3.36914 C 9.76562 6.15234 12.0605 8.34961 14.7949 8.34961 Z"/>
  </g>
  <g id="Bold-S" transform="matrix(1 0 0 1 2299.91 696)">
   <path d="M 39.9414 -68.2617 C 45.2637 -68.2617 49.6094 -72.7051 49.6094 -77.832 C 49.6094 -83.2031 45.2637 -87.5 39.9414 -87.5 C 34.5703 -87.5 30.3711 -83.2031 30.3711 -77.832 C 30.3711 -72.7051 34.5703 -68.2617 39.9414 -68.2617 Z M 53.3691 8.05664 C 55.9082 8.05664 58.1055 6.20117 58.1055 3.41797 C 58.1055 2.44141 57.8125 1.46484 57.2754 0.390625 L 48.4863 -17.334 C 47.6562 -19.043 46.8262 -20.3613 46.0449 -21.4355 L 41.0156 -28.6133 L 41.2598 -29.4922 C 42.7246 -34.1797 43.2129 -37.0605 43.5547 -41.4062 L 44.4336 -53.3691 C 44.873 -59.6191 41.3086 -64.7461 34.5703 -64.7461 C 29.9805 -64.7461 26.1719 -62.3047 21.7773 -58.0078 L 15.2344 -51.5137 C 13.0371 -49.3164 12.3047 -47.5098 12.1094 -44.7266 L 11.2793 -34.8145 C 11.0352 -31.9336 12.6953 -30.0781 15.2344 -29.8828 C 17.7734 -29.7363 19.6289 -31.2012 19.9219 -34.2773 L 20.8008 -45.0195 L 24.6094 -48.3398 C 25.3418 -48.9746 26.3672 -48.6328 26.2695 -47.5586 L 25.5859 -37.8418 C 25.1953 -33.0078 27.4902 -29.541 29.834 -26.5137 L 38.3789 -15.7715 C 39.1602 -14.7949 39.3555 -14.4531 39.7461 -13.623 L 48.9258 5.0293 C 50 7.17773 51.6602 8.05664 53.3691 8.05664 Z M 55.6152 -39.1113 L 65.6738 -39.1113 C 68.6035 -39.1113 70.3613 -40.8691 70.3613 -43.4082 C 70.3613 -45.9961 68.6035 -47.7539 65.625 -47.7539 L 55.2734 -47.7539 L 48.2422 -55.2246 L 47.4609 -43.8477 L 50.3418 -40.9668 C 51.7578 -39.502 53.125 -39.1113 55.6152 -39.1113 Z M 14.4043 8.05664 C 15.8203 8.05664 17.1875 7.37305 18.2129 6.15234 L 31.1035 -9.22852 C 32.4707 -10.8887 32.7148 -11.377 33.2031 -12.9395 C 33.4473 -13.6719 33.6426 -14.4043 33.8379 -15.1367 L 26.0742 -24.7559 L 23.9746 -15.1855 L 11.4746 -0.439453 C 10.4004 0.830078 9.76562 2.00195 9.76562 3.41797 C 9.76562 6.05469 11.8652 8.05664 14.4043 8.05664 Z"/>
  </g>
  <g id="Semibold-S" transform="matrix(1 0 0 1 2004.2 696)">
   <path d="M 38.9648 -66.8457 C 44.1895 -66.8457 48.4375 -71.1426 48.4375 -76.2207 C 48.4375 -81.4941 44.1895 -85.6934 38.9648 -85.6934 C 33.7402 -85.6934 29.6387 -81.4941 29.6387 -76.2207 C 29.6387 -71.1426 33.7402 -66.8457 38.9648 -66.8457 Z M 52.1973 7.8125 C 54.541 7.8125 56.6406 6.10352 56.6406 3.36914 C 56.6406 2.34375 56.3477 1.41602 55.8594 0.341797 L 47.3633 -16.7969 C 46.582 -18.3594 45.7031 -19.7266 44.9707 -20.8008 L 39.8926 -27.9785 L 40.1855 -28.8574 C 41.6504 -33.4473 42.1387 -36.1816 42.4805 -40.4785 L 43.3105 -52.4414 C 43.75 -58.4473 40.2832 -63.3789 33.8867 -63.3789 C 29.3457 -63.3789 25.8789 -60.9375 21.6309 -56.7871 L 15.1855 -50.3906 C 13.0371 -48.2422 12.3047 -46.4844 12.1094 -43.75 L 11.2793 -33.9355 C 11.084 -31.1523 12.6465 -29.3457 15.1367 -29.1992 C 17.5293 -29.0527 19.2871 -30.4688 19.5801 -33.3984 L 20.459 -44.0918 L 24.1699 -47.4121 C 24.9023 -47.998 25.9277 -47.7051 25.8301 -46.6309 L 25.1465 -37.0117 C 24.7559 -32.2754 26.9043 -28.8574 29.248 -25.8789 L 37.5977 -15.3809 C 38.4277 -14.3555 38.5742 -14.0137 38.916 -13.2324 L 47.9004 4.93164 C 48.9258 7.08008 50.5371 7.8125 52.1973 7.8125 Z M 54.248 -38.3789 L 63.8184 -38.3789 C 66.6504 -38.3789 68.3594 -40.0391 68.3594 -42.5293 C 68.4082 -44.9707 66.6504 -46.6797 63.8184 -46.6797 L 53.8086 -46.6797 L 47.0215 -53.9551 L 46.2891 -43.0176 L 49.0723 -40.1855 C 50.4883 -38.7695 51.8066 -38.3789 54.248 -38.3789 Z M 14.1602 7.8125 C 15.5273 7.8125 16.7969 7.17773 17.7246 6.10352 L 30.3223 -8.93555 C 31.6406 -10.498 31.8359 -10.9375 32.373 -12.4512 C 32.666 -13.3301 32.8613 -14.1113 33.0566 -14.9414 L 25.6836 -24.1699 L 23.584 -14.5996 L 11.5234 -0.390625 C 10.4492 0.878906 9.76562 2.00195 9.76562 3.4668 C 9.76562 6.00586 11.7188 7.8125 14.1602 7.8125 Z"/>
  </g>
  <g id="Medium-S" transform="matrix(1 0 0 1 1708.23 696)">
   <path d="M 38.2812 -65.7715 C 43.4082 -65.7715 47.6074 -70.0195 47.6074 -74.9512 C 47.6074 -80.1758 43.4082 -84.3262 38.2812 -84.3262 C 33.1055 -84.3262 29.0527 -80.1758 29.0527 -74.9512 C 29.0527 -70.0195 33.1055 -65.7715 38.2812 -65.7715 Z M 51.3184 7.66602 C 53.5645 7.66602 55.5664 6.05469 55.5664 3.32031 C 55.5664 2.29492 55.2734 1.36719 54.7363 0.292969 L 46.4844 -16.3574 C 45.752 -17.8711 44.9219 -19.1895 44.1406 -20.2637 L 39.0625 -27.4414 L 39.4043 -28.418 C 40.8203 -32.8613 41.3574 -35.5469 41.6504 -39.7949 L 42.4805 -51.6602 C 42.9199 -57.5195 39.502 -62.3535 33.3496 -62.3535 C 28.8574 -62.3535 25.6348 -59.8633 21.4844 -55.8105 L 15.1367 -49.5605 C 13.0371 -47.4121 12.3047 -45.7031 12.1094 -43.0176 L 11.3281 -33.252 C 11.1328 -30.5664 12.6465 -28.8086 15.0391 -28.6621 C 17.3828 -28.5156 19.043 -29.8828 19.2871 -32.7637 L 20.2148 -43.4082 L 23.877 -46.6309 C 24.5605 -47.2656 25.5859 -46.9238 25.4883 -45.8984 L 24.8047 -36.377 C 24.4629 -31.6895 26.5137 -28.3203 28.8086 -25.4395 L 37.0605 -15.0391 C 37.8418 -14.0625 37.9883 -13.6719 38.3301 -12.9395 L 47.1191 4.88281 C 48.1445 6.98242 49.707 7.66602 51.3184 7.66602 Z M 53.1738 -37.8418 L 62.4512 -37.8418 C 65.1855 -37.8418 66.8945 -39.4043 66.8945 -41.7969 C 66.8945 -44.2383 65.1367 -45.8496 62.4512 -45.8496 L 52.7344 -45.8496 L 46.0938 -53.0273 L 45.4102 -42.3828 L 48.0957 -39.6484 C 49.5117 -38.2324 50.8301 -37.8418 53.1738 -37.8418 Z M 13.9648 7.66602 C 15.2832 7.66602 16.5527 7.03125 17.3828 6.05469 L 29.7363 -8.69141 C 31.0059 -10.2051 31.2012 -10.6445 31.7383 -12.1094 C 32.0312 -13.0371 32.2754 -13.916 32.4707 -14.7949 L 25.3418 -23.6816 L 23.291 -14.209 L 11.5723 -0.341797 C 10.498 0.927734 9.76562 2.00195 9.76562 3.51562 C 9.76562 5.95703 11.6211 7.66602 13.9648 7.66602 Z"/>
  </g>
  <g id="Regular-S" transform="matrix(1 0 0 1 1412.49 696)">
   <path d="M 37.3047 -64.3555 C 42.3828 -64.3555 46.4355 -68.5059 46.4355 -73.3887 C 46.4355 -78.4668 42.3828 -82.5684 37.3047 -82.5684 C 32.2754 -82.5684 28.2715 -78.4668 28.2715 -73.3887 C 28.2715 -68.5059 32.2754 -64.3555 37.3047 -64.3555 Z M 50.1953 7.4707 C 52.2461 7.4707 54.1016 5.95703 54.1016 3.27148 C 54.1016 2.24609 53.8086 1.31836 53.3203 0.244141 L 45.3613 -15.8203 C 44.6777 -17.1875 43.8477 -18.5547 43.0664 -19.6289 L 37.9883 -26.8066 L 38.3301 -27.832 C 39.7461 -32.0801 40.2832 -34.7168 40.5762 -38.916 L 41.4062 -50.7324 C 41.7969 -56.3477 38.5254 -60.9863 32.6172 -60.9863 C 28.2715 -60.9863 25.3418 -58.4961 21.3379 -54.6387 L 15.0879 -48.4863 C 12.9883 -46.3867 12.3047 -44.6777 12.1094 -42.041 L 11.377 -32.4219 C 11.1816 -29.834 12.5977 -28.125 14.9414 -27.9785 C 17.1387 -27.832 18.75 -29.1504 18.9941 -31.9336 L 19.873 -42.5293 L 23.4863 -45.7031 C 24.1699 -46.2891 25.1465 -45.9961 25.0488 -44.9707 L 24.3652 -35.5469 C 24.0234 -30.957 25.9766 -27.6367 28.2227 -24.8047 L 36.2793 -14.6484 C 37.1094 -13.623 37.207 -13.2324 37.5488 -12.5488 L 46.1426 4.78516 C 47.1191 6.83594 48.6328 7.4707 50.1953 7.4707 Z M 51.8555 -37.1582 L 60.6445 -37.1582 C 63.2324 -37.1582 64.9414 -38.5742 64.9414 -40.918 C 64.9414 -43.2617 63.2324 -44.7754 60.6445 -44.7754 L 51.3184 -44.7754 L 44.9219 -51.7578 L 44.2383 -41.5527 L 46.875 -38.916 C 48.2422 -37.5488 49.5117 -37.1582 51.8555 -37.1582 Z M 13.6719 7.4707 C 14.9902 7.4707 16.1621 6.88477 16.8945 6.00586 L 29.0039 -8.39844 C 30.1758 -9.81445 30.3223 -10.2051 30.8594 -11.6699 C 31.2012 -12.6953 31.4941 -13.5742 31.7383 -14.5996 L 24.9512 -23.0469 L 22.9004 -13.623 L 11.6211 -0.244141 C 10.5469 0.976562 9.76562 1.95312 9.76562 3.56445 C 9.76562 5.9082 11.4746 7.4707 13.6719 7.4707 Z"/>
  </g>
  <g id="Light-S" transform="matrix(1 0 0 1 1116.37 696)">
   <path d="M 36.6211 -64.209 C 41.5039 -64.209 45.459 -68.2617 45.459 -72.998 C 45.459 -77.9297 41.5039 -81.8848 36.6211 -81.8848 C 31.6895 -81.8848 27.832 -77.9297 27.832 -72.998 C 27.832 -68.2617 31.6895 -64.209 36.6211 -64.209 Z M 49.3652 6.29883 C 51.3184 6.29883 53.125 4.78516 53.125 2.19727 C 53.125 1.2207 52.832 0.292969 52.3438 -0.732422 L 44.5312 -16.6016 C 43.8477 -17.9199 43.0176 -19.2871 42.2852 -20.3613 L 37.3047 -27.4414 L 37.5977 -28.418 C 38.9648 -32.6172 39.5508 -35.2051 39.8438 -39.3066 L 40.625 -50.9277 C 41.0156 -56.4941 37.8418 -61.0352 32.1777 -61.0352 C 27.832 -61.0352 24.9512 -58.5938 21.0449 -54.7852 L 14.8926 -48.7305 C 12.8418 -46.6797 12.1582 -44.9707 11.9629 -42.4316 L 11.2305 -32.8613 C 11.0352 -30.3711 12.4023 -28.7109 14.6484 -28.6133 C 16.748 -28.4668 18.3105 -29.6875 18.5547 -32.373 L 19.4336 -42.9688 L 23.1445 -46.1914 C 23.7793 -46.7773 24.7559 -46.4844 24.707 -45.5078 L 24.0234 -35.9863 C 23.6816 -31.4941 25.5859 -28.2227 27.7832 -25.4883 L 35.7422 -15.4785 C 36.5234 -14.4531 36.6699 -14.0625 37.0117 -13.3789 L 45.459 3.71094 C 46.4355 5.66406 47.8516 6.29883 49.3652 6.29883 Z M 50.8789 -37.5977 L 59.6191 -37.5977 C 62.1582 -37.5977 63.7695 -39.0137 63.7695 -41.2109 C 63.7695 -43.457 62.1582 -44.9219 59.6191 -44.9219 L 50.3418 -44.9219 L 43.7012 -52.1484 L 43.0176 -42.2852 L 45.9961 -39.3066 C 47.3145 -37.9883 48.584 -37.5977 50.8789 -37.5977 Z M 13.5254 6.29883 C 14.7949 6.29883 15.9668 5.71289 16.6992 4.83398 L 28.5645 -9.32617 C 29.7852 -10.791 29.8828 -11.1328 30.4199 -12.5488 C 30.8105 -13.7207 31.1035 -14.8438 31.3965 -15.9668 L 24.8047 -24.1211 L 22.7539 -14.4531 L 11.5723 -1.2207 C 10.5469 0 9.76562 0.976562 9.76562 2.58789 C 9.76562 4.78516 11.377 6.29883 13.5254 6.29883 Z"/>
  </g>
  <g id="Thin-S" transform="matrix(1 0 0 1 820.436 696)">
   <path d="M 35.6445 -64.0137 C 40.3809 -64.0137 44.1895 -67.9199 44.1895 -72.5098 C 44.1895 -77.1973 40.3809 -81.0547 35.6445 -81.0547 C 30.957 -81.0547 27.1973 -77.1973 27.1973 -72.5098 C 27.1973 -67.9199 30.957 -64.0137 35.6445 -64.0137 Z M 48.2422 4.73633 C 50.0977 4.73633 51.8555 3.32031 51.8555 0.78125 C 51.8555 -0.146484 51.5625 -1.02539 51.0742 -2.09961 L 43.4082 -17.627 C 42.7246 -18.9453 41.8945 -20.3125 41.2109 -21.2891 L 36.3281 -28.2227 L 36.6699 -29.248 C 37.9395 -33.3496 38.5254 -35.8398 38.8184 -39.8926 L 39.5996 -51.2207 C 39.9902 -56.6406 36.9629 -61.084 31.543 -61.084 C 27.2949 -61.084 24.4629 -58.7402 20.6543 -54.9805 L 14.6484 -49.0723 C 12.6465 -47.0703 12.0117 -45.4102 11.8164 -42.9199 L 11.0352 -33.4473 C 10.8398 -31.1035 12.1582 -29.541 14.209 -29.3945 C 16.2598 -29.248 17.8223 -30.4199 18.0176 -32.959 L 18.8965 -43.5547 L 22.6562 -46.875 C 23.291 -47.4609 24.2676 -47.168 24.2188 -46.1914 L 23.5352 -36.6211 C 23.2422 -32.2266 25.0977 -29.0527 27.2461 -26.3184 L 35.0098 -16.5527 C 35.791 -15.5762 35.9375 -15.1855 36.2793 -14.502 L 44.5801 2.29492 C 45.459 4.10156 46.8262 4.73633 48.2422 4.73633 Z M 49.6094 -38.1348 L 58.3008 -38.1348 C 60.6934 -38.1348 62.207 -39.502 62.207 -41.6504 C 62.207 -43.75 60.6934 -45.0684 58.3008 -45.0684 L 49.0723 -45.0684 L 42.0898 -52.6367 L 41.4062 -43.2129 L 44.8242 -39.8926 C 46.1426 -38.5742 47.4121 -38.1348 49.6094 -38.1348 Z M 13.3301 4.73633 C 14.5508 4.73633 15.6738 4.19922 16.4062 3.32031 L 28.0273 -10.498 C 29.2969 -12.0117 29.3457 -12.3047 29.7852 -13.6719 C 30.2246 -15.0879 30.6152 -16.5039 30.957 -17.7734 L 24.6094 -25.5859 L 22.5586 -15.5762 L 11.5723 -2.49023 C 10.5469 -1.26953 9.76562 -0.292969 9.76562 1.2207 C 9.76562 3.27148 11.2793 4.73633 13.3301 4.73633 Z"/>
  </g>
  <g id="Ultralight-S" transform="matrix(1 0 0 1 524.115 696)">
   <path d="M 35.1562 -63.916 C 39.7949 -63.916 43.5059 -67.7734 43.5059 -72.2168 C 43.5059 -76.8066 39.7949 -80.6152 35.1562 -80.6152 C 30.5664 -80.6152 26.8555 -76.8066 26.8555 -72.2168 C 26.8555 -67.7734 30.5664 -63.916 35.1562 -63.916 Z M 47.7051 3.95508 C 49.4629 3.95508 51.1719 2.53906 51.1719 0.0488281 C 51.1719 -0.878906 50.8789 -1.75781 50.3906 -2.7832 L 42.8223 -18.1641 C 42.1875 -19.4824 41.3574 -20.8496 40.6738 -21.8262 L 35.8398 -28.6621 L 36.1328 -29.6387 C 37.4023 -33.6914 37.9883 -36.1328 38.2812 -40.1855 L 39.0625 -51.3672 C 39.4531 -56.7383 36.4746 -61.1328 31.2012 -61.1328 C 27.002 -61.1328 24.2188 -58.8379 20.459 -55.0781 L 14.5508 -49.2676 C 12.5488 -47.2656 11.8652 -45.6055 11.6699 -43.1641 L 10.9375 -33.7891 C 10.7422 -31.4453 12.0605 -29.9316 14.0137 -29.834 C 16.0156 -29.6875 17.5293 -30.8105 17.7246 -33.3008 L 18.5547 -43.8965 L 22.4121 -47.2168 C 23.0469 -47.8027 24.0234 -47.5098 23.9746 -46.5332 L 23.291 -36.9629 C 22.998 -32.6172 24.8047 -29.4434 26.9531 -26.7578 L 34.668 -17.0898 C 35.4004 -16.1621 35.5469 -15.7715 35.8887 -15.0879 L 44.0918 1.51367 C 44.9707 3.32031 46.2891 3.95508 47.7051 3.95508 Z M 48.9258 -38.4766 L 57.5684 -38.4766 C 59.9609 -38.4766 61.4258 -39.7949 61.4258 -41.8457 C 61.4258 -43.8965 59.9609 -45.2148 57.5684 -45.2148 L 48.4375 -45.2148 L 41.2598 -52.9297 L 40.5762 -43.75 L 44.2383 -40.1855 C 45.5566 -38.916 46.7773 -38.4766 48.9258 -38.4766 Z M 13.2324 3.95508 C 14.4531 3.95508 15.5273 3.41797 16.2598 2.53906 L 27.7344 -11.1328 C 29.0039 -12.6465 29.0039 -12.8906 29.4434 -14.2578 C 29.9316 -15.8203 30.3711 -17.334 30.7129 -18.7012 L 24.5117 -26.3184 L 22.4609 -16.1133 L 11.5234 -3.125 C 10.5469 -1.95312 9.76562 -0.976562 9.76562 0.537109 C 9.76562 2.53906 11.2305 3.95508 13.2324 3.95508 Z"/>
  </g>
 </g>
</svg>
